<svg width="48" height="72" version="1.1" xmlns="http://www.w3.org/2000/svg" viewBox="0 -25 100 150" style="vertical-align: top;"><g><path d="m25.33,4.74l8.01,-0.28l-0.46,11.42l-6.50,0.33l-1.05,-11.47z" stroke="#000000" stroke-width="0" fill="#3f3f3f"></path><path d="m16.18,15.95l24.83,-0.41l1.88,7.54c-6.89,7.25 -13.53,12.17 -18.70,13.75c-5.17,1.58 13.15,-0.88 23.02,-2.92l1,7.13c-12.97,2.92 -25.65,3.62 -34.82,2.37l-2.68,-7.29c5.34,-1.85 17.00,-7.86 23.59,-13.88l-18.86,0.83l0.74,-7.14z" stroke="#000000" stroke-width="0" fill="#3f3f3f"></path></g><g><path d="m12.38,47.98l27.24,-1.61l2.64,8.49l-18.74,11.18c7.11,-0.14 11.42,-1.47 24.09,-2.47l1.10,7.65c-10.36,1.72 -26.05,3.20 -39.15,3.93l-3.52,-7.26c5.34,-4.13 16.07,-9.33 25.67,-14.37l-18.38,0.78l-0.95,-6.33z" stroke="#000000" stroke-width="0" fill="#3f3f3f"></path></g><g><path d="m58.33,6.83l8.05,1.10l-3.84,12.27c6.84,-1.53 19.85,-3.32 22.76,-2.41c2.91,0.91 3.66,3.54 4.30,6.05c0.64,2.51 -0.92,10.10 -5.18,17.82l-7.16,-2.22c2.26,-3.98 5.48,-11.83 4.06,-13.61c-1.43,-1.78 -16.39,1.28 -23.38,3.55l-4.52,-7.27l4.91,-15.28z" stroke="#000000" stroke-width="0" fill="#3f3f3f"></path></g><g><path d="m89.45,45.96l-3.83,-7.29c-9.45,4.89 -30.98,3.51 -31.44,5.01c-0.46,1.50 -0.63,16.29 -2.93,24.24l5.27,4.42c14.48,-1.86 36.31,0.18 37.28,-1.50c0.97,-1.68 2.81,-7.25 0.88,-8.46c-1.94,-1.21 -35.40,4.29 -34.19,1.24c1.21,-3.05 1.20,-12.87 1.67,-13.23c0.47,-0.36 20.12,-1.11 27.29,-4.43z" stroke="#000000" stroke-width="0" fill="#3f3f3f"></path></g><g><path d="m34.98,76.08l-8.06,1.92c1.33,6.06 2.75,7.36 4.08,14.58l6.67,1.08c10.06,-7.06 28.75,-12.86 31.08,-11.58c2.33,1.28 -1.17,5.22 -3.17,10.00l6.58,4.17c3.78,-5.44 6.81,-10.64 7.42,-16.92l-7.83,-7c-14.33,3.56 -23.67,5.44 -34.33,12l-2.44,-8.25z" stroke="#000000" stroke-width="0" fill="#3f3f3f"></path></g></svg>
