<svg width="1600" height="1200" xmlns="http://www.w3.org/2000/svg" xmlns:svg="http://www.w3.org/2000/svg">
 <!-- Created with SVG-edit - http://www.86y.org/demo/svg/-->
 l" stroke-linejoin="null" stroke-dasharray="null" stroke-width="0" stroke="#333333" fill="#333333"/>
  <path transform="rotate(36.780250549316406 182.21179199218744,42.5255355834961) " id="svg_7" d="m166.635261,26.884586c-4.12412,-2.72887 5.91468,-6.21307 6.96738,-1.99049c1.0527,4.22257 20.4772,28.08409 24.24967,31.1628c3.77247,3.07871 -5.12431,8.37681 -6.45097,4.95921c-1.32665,-3.4176 -20<g display="none" class="layer">
  <title>gramma-k</title>
 </g>
 <g display="none" class="layer">
  <title>basic-k</title>
  <path transform="rotate(162.9254913330078 142.0336456298828,20.424652099609375) " stroke="#333333" id="svg_4" d="m138.34466,15.19341l0.54493,-1.56835c1.14502,-2.15949 4.18678,-1.09166 4.83125,1.07497c0.64447,2.16663 1.26167,5.82044 1.78954,9.4496c0.52787,3.62916 0.13829,4.10476 -1.93346,4.25064c-2.07175,0.14588 -1.74634,-3.21969 -3.47095,-7.05675c-1.72461,-3.83706 -1.2928,-2.65174 -1.76131,-6.15011z" stroke-linecap="null" stroke-linejoin="null" stroke-dasharray="null" stroke-width="0" fill="#333333"/>
  <path id="svg_5" stroke="#333333" d="m122.75,7.23757l0.45,-0.23757c1.3,-0.96117 3.9,-1.17975 4.75,0.31774c0.85,1.49749 0.4,2.8359 0.2,6.45071c-0.2,3.61481 -1.2,3.69371 -3,3.29539c-1.8,-0.39832 -2.1,-4.79288 -2.5,-6.13087c-0.4,-1.33799 -0.3,-2.13757 0.1,-3.6954z" stroke-linecap="null" stroke-linejoin="null" stroke-dasharray="null" stroke-width="0" fill="#333333"/>
 </g>
 </g>
 <g display="none" class="layer">
  <title>basic-sh</title>
  <path id="svg_6" d="m129.075,11.775c-1.20833,-3.44167 3.525,-3.975 5.025,-3.975c1.5,0 10.73333,13.15833 12.5,16.625c1.76667,3.46667 2.68333,10.11667 -4.7,3.625c-7.38333,-6.49167 -11.61667,-12.83333 -12.825,-16.275z" stroke-linecap="nul.64196,-31.40263 -24.76608,-34.13151z" stroke-linecap="null" stroke-linejoin="null" stroke-dasharray="null" stroke-width="0" stroke="#333333" fill="#333333"/>
  <path id="svg_8" transform="rotate(-62.774417877197266 142.42668151855466,36.29421615600586) " d="m126.785951,24.781511c-1.89233,-1.82569 1.1461,-10.08207 3.98421,-5.75642c2.83811,4.32565 8.84181,15.20775 21.99146,25.91484c13.14965,10.70709 0.7323,12.02623 -3.07681,7.16023c-3.80912,-4.86599 -21.00652,-25.49294 -22.89886,-27.31864z" stroke-linecap="null" stroke-linejoin="null" stroke-dasharray="null" stroke-width="0" stroke="#333333" fill="#333333"/>
  <path id="svg_9" transform="rotate(-53.57221603393555 144.31800842285153,59.667037963867166) " d="m129.22,45.05237c-1.97308,-3.4005 5.33925,-5.93895 6.54457,-3.39115c1.20531,2.5478 13.66546,19.59841 20.93225,26.3076c7.26679,6.70919 -0.30905,14.60935 -3.40668,8.61397c-3.09763,-5.99539 -22.09707,-28.12991 -24.07014,-31.53041z" stroke-linecap="null" stroke-linejoin="null" stroke-dasharray="null" stroke-width="0" stroke="#333333" fill="#333333"/>
  <path id="svg_10" d="m227.55749,23.47796c5.65084,1.56371 5.23418,-0.89463 1.19251,9.89704c-4.04167,10.79167 -11.20833,20.125 -26.875,23.125c-15.66667,3 10.5,-4.25 18.25,-20c7.75,-15.75 1.78165,-14.58575 7.43249,-13.02204z" stroke-linecap="null" stroke-linejoin="null" stroke-dasharray="null" stroke-width="0" stroke="#333333" fill="#333333"/>
 </g>
 <g display="none" class="layer">
  <title>ether</title>
  <text xml:space="preserve" text-anchor="middle" font-family="Sans-serif" font-size="100" id="svg_1" y="86.75" x="50" stroke-width="0" stroke="#000000" fill="#999999">我</text>
 </g>
 <g display="inline" class="layer">
  <title>basic-h</title>
 </g>
 <g class="layer">
  <title>gramma-h</title>
  <path id="svg_11" d="m27.576433,6.905988l6.0069,-0.780988l-0.125,10.416667l-5.166667,0.5l-0.715233,-10.135679z" stroke-linecap="null" stroke-linejoin="null" stroke-dasharray="null" stroke-width="0" stroke="#333333" fill="#333333"/>
  <path stroke="#333333" id="svg_12" d="m13.999078,45.4838l24.916004,-1.942133l2.232597,5.986417c-7.704642,7.387494 -15.584389,12.737058 -21.362871,14.350419c-5.778482,1.613361 17.641878,-0.551939 28.673525,-2.632325l0.5,6.731676c-14.48998,2.971981 -30.129749,4.036562 -39.540087,2.429523l-2.459916,-7.590295c5.968179,-1.882255 18.065051,-7.161057 25.434074,-13.288998l-18.123418,1.868102l-0.269908,-5.912386z" stroke-linecap="null" stroke-linejoin="null" stroke-dasharray="null" stroke-width="0" fill="#333333"/>
  <path stroke="#333333" id="svg_14" d="m17.59216,16.780987l24.333409,-1.072654l1.214388,6.375c-6.894587,7.25 -15.19943,12.5 -20.370371,14.083333c-5.17094,1.583334 15.316952,-0.541666 25.188747,-2.583333l0,6.125c-12.966525,2.916667 -25.149573,3.625 -34.316239,2.375l-2.350427,-6.958333c5.340693,-1.847223 16.165718,-7.027778 22.759972,-13.041667l-16.53134,1l0.071861,-6.302346z" stroke-linecap="null" stroke-linejoin="null" stroke-dasharray="null" stroke-width="0" fill="#333333"/>
  <path stroke="#333333" id="svg_15" d="m58.522384,7.000921l6.738372,1.102248l-3.92548,11.768149c6.995408,-1.532311 20.633938,-3.984007 22.948966,-2.574282c2.315027,1.409725 3.573195,3.371084 4.227441,5.884073c0.654247,2.512989 -1.610454,9.929376 -5.133322,17.652225l-6.492142,-2.390406c2.315028,-3.984008 5.608483,-11.829441 4.149009,-13.606922c-1.459473,-1.777481 -16.931985,1.777481 -24.078374,4.045301l-3.623521,-6.435706l5.189051,-15.44468z" stroke-linecap="null" stroke-linejoin="null" stroke-dasharray="null" stroke-width="0" fill="#333333"/>
  <path stroke="#333333" id="svg_17" d="m87.228187,44.12368l-2.728187,-6.790347c-8.666666,4.894737 -28.722221,4.842105 -28.833333,5.842105c-0.111112,1.000001 -0.888889,14.789474 -3,22.736843l4.833333,4.421053c13.277778,-1.859649 33.611111,-0.315791 34.5,-2.000001c0.888889,-1.68421 2.11111,-6.578948 0.333333,-7.789473c-1.777777,-1.210526 -32.777778,4.789474 -31.666666,1.736842c1.111112,-3.052631 1.722221,-13.368421 1.999999,-13.894737c0.277778,-0.526316 17.985459,-0.946786 24.561521,-4.262285z" stroke-linecap="null" stroke-linejoin="null" stroke-dasharray="null" stroke-width="0" fill="#333333"/>
  <path id="svg_19" d="m32.894854,73.667589l-6.728187,2.999079c1.333333,6.055555 1.333333,7.277776 2.666666,14.499998l6.166667,0.833334c10.055555,-7.055556 30.333333,-14.611111 32.666666,-13.333333c2.333333,1.277778 -1.000001,7.555556 -3,12.333334l5.833333,3.333333c3.777778,-5.444445 5.88889,-11.222222 6.500001,-17.5l-7.000001,-6.666667c-14.333333,3.555556 -24.499999,7.111111 -35.166666,13.666667l-1.938479,-10.165745z" stroke-linecap="null" stroke-linejoin="null" stroke-dasharray="null" stroke-width="0" stroke="#333333" fill="#333333"/>
 </g>
 <g class="layer">
  <title>exit</title>
 </g>
</svg>
